<?xml version="1.0" encoding="UTF-8"?>
<svg width="91px" height="95px" viewBox="0 0 91 95" version="1.1" xmlns="http://www.w3.org/2000/svg" xmlns:xlink="http://www.w3.org/1999/xlink">
    <title>default-small</title>
    <g id="Page-1" stroke="none" stroke-width="1" fill="none" fill-rule="evenodd">
        <g id="default-small" fill="#FFFFFF" fill-rule="nonzero">
            <path d="M45.5005126,95 C43.371356,95 41.2405602,94.3922596 39.5818177,93.1784257 L35.7611371,90.3933605 C34.0138846,89.1136469 30.4554558,87.9525168 28.2886005,87.9525168 L23.5631512,87.9525168 C19.4654671,87.9525168 15.2628824,84.8841687 13.9909612,80.9643253 L12.5305466,76.4466233 C11.8618046,74.3845881 9.65888965,71.3376509 7.91163716,70.0579373 L4.0876784,67.2712251 C0.770193382,64.8468513 -0.83609877,59.8811673 0.434183289,55.9629709 L1.89459789,51.4485629 C2.56333993,49.3815866 2.56333993,45.6215015 1.89459789,43.5561722 L0.434183289,39.0384703 C-0.834459696,35.1219209 0.770193382,30.1545898 4.0876784,27.7318631 L7.91327624,24.9402099 C9.65888965,23.6654372 11.8618046,20.6185001 12.5305466,18.5515238 L13.9909612,14.0387629 C15.2612433,10.1205664 19.4654671,7.0522184 23.5631512,7.0522184 L28.2886005,7.0522184 C30.4505386,7.0522184 34.0106065,5.88944131 35.7562199,4.6130217 L39.5850959,1.8180745 C42.9009418,-0.606299262 48.0984443,-0.606299262 51.4159293,1.81972149 L55.2398881,4.60972771 C56.9887796,5.88779431 60.5488475,7.0505714 62.7107856,7.0505714 L67.4395131,7.0505714 C71.5388362,7.0505714 75.741421,10.1205664 77.0084249,14.0387629 L78.4704785,18.5482298 C79.1375815,20.6135591 81.3388574,23.6604963 83.089388,24.9402099 L86.9117077,27.7269221 C90.2275537,30.1480019 91.8338458,35.1136859 90.568481,39.0335293 L89.1047882,43.5528783 C88.4376853,45.6165605 88.4376853,49.3799396 89.1047882,51.4469159 L90.568481,55.9596769 C91.8322067,59.8811673 90.2275537,64.8468513 86.9117077,67.2662841 L83.0861099,70.0579373 C81.7322351,71.0461332 79.8407441,70.7414394 78.858939,69.3826702 C77.8771339,68.0255479 78.1787234,66.1232709 79.5293201,65.1367221 L83.3549179,62.3467159 C84.5661934,61.4639276 85.2759122,59.2717799 84.8136935,57.8388959 L83.3500007,53.326135 C82.2780466,50.002503 82.2780466,44.9939972 83.3500007,41.6736592 L84.8136935,37.1543103 C85.2759122,35.7247203 84.5678324,33.5325726 83.3549179,32.6481373 L79.5293201,29.8581311 C76.7133916,27.7977428 73.7860061,23.7444929 72.715691,20.4274489 L71.2536374,15.917982 C70.7897795,14.483451 68.9376263,13.1312697 67.4395131,13.1312697 L62.7107856,13.1312697 C59.2359496,13.1312697 54.4941096,11.5814493 51.6814592,9.52764894 L47.8575005,6.73599573 C46.644586,5.84991347 44.3531611,5.84991347 43.1435247,6.73434874 L39.3162878,9.52764894 C36.5101938,11.5814493 31.7699928,13.1312697 28.2886005,13.1312697 L23.5631512,13.1312697 C22.0650379,13.1312697 20.2112456,14.485098 19.7457487,15.917982 L18.2869732,20.4290959 C17.2101018,23.7510809 14.2810773,27.8043308 11.4717051,29.8564841 L7.64446816,32.6481373 C6.43319275,33.5325726 5.72511295,35.7214263 6.18897078,37.1526633 L7.64938538,41.6703652 C8.72461768,44.9907032 8.72461768,50.000856 7.64938538,53.322841 L6.18897078,57.8388959 C5.72511295,59.2717799 6.43155368,61.4622806 7.64446816,62.3467159 L11.470066,65.1350751 C14.2810773,67.1921694 17.2101018,71.2437723 18.2853341,74.5608163 L19.7473878,79.0801652 C20.2112456,80.5114022 22.066677,81.8685245 23.5631512,81.8685245 L28.2886005,81.8685245 C31.7716319,81.8685245 36.515111,83.4166979 39.3179269,85.4721452 L43.1386075,88.2572105 C44.3548001,89.1465867 46.6429469,89.1449397 47.8525832,88.2605045 L51.6830983,85.4688512 C54.4875533,83.4166979 59.2293933,81.8685245 62.7091466,81.8685245 L67.437874,81.8685245 C68.9343482,81.8685245 70.7881405,80.5146962 71.2503592,79.0801652 L72.714052,74.5624633 C73.2303602,72.9648801 74.9382749,72.0870328 76.5281763,72.6107765 C78.1180777,73.1312264 78.9867867,74.8457461 78.4704785,76.4433294 L77.0067858,80.9593843 C75.74306,84.8775807 71.5388362,87.9475758 67.437874,87.9475758 L62.7091466,87.9475758 C60.5455694,87.9475758 56.9871405,89.1103529 55.2398881,90.3851255 L51.4110121,93.1767787 C49.7539086,94.3922596 47.6280302,94.998353 45.5005126,95 Z" id="Path"></path>
            <g id="Group" transform="translate(12.000000, 13.000000)">
                <path d="M33.4975415,67 C15.0245603,67 0,51.9734331 0,33.501639 C0,15.0282059 15.0261993,0 33.4975415,0 C51.9705228,0 67,15.0282059 67,33.501639 C67,51.9734331 51.9705228,67 33.4975415,67 Z M33.4975415,6.05291355 C18.3631694,6.05291355 6.04948751,18.3668966 6.04948751,33.503278 C6.04948751,48.6347424 18.3631694,60.9470865 33.4975415,60.9470865 C48.6335527,60.9470865 60.9505125,48.6347424 60.9505125,33.503278 C60.9505125,18.3668966 48.6335527,6.05291355 33.4975415,6.05291355 Z" id="Shape"></path>
                <g transform="translate(9.678197, 9.812833)" id="Path">
                    <polygon points="29.8999731 32.4100494 33.6581619 20.843461 23.8193449 13.7005969 13.9870838 20.843461 17.7452726 32.4100494"></polygon>
                    <path d="M33.1123804,3.35508097 L31.9847599,1.468565 C29.4328628,0.53432164 26.6924827,-3.55271368e-15 23.8209839,-3.55271368e-15 C20.951124,-3.55271368e-15 18.2123829,0.532682617 15.6604858,1.468565 L14.5279483,3.35508097 L23.8209839,6.99699105 L33.1123804,3.35508097 Z"></path>
                    <path d="M43.8509993,10.9634278 L41.7596565,10.2717599 L40.235402,20.14032 L45.8292522,28.4075542 L47.422344,26.8881795 C47.5501847,25.88018 47.6403288,24.8656245 47.6403288,23.8248447 C47.6403288,19.0831499 46.240637,14.6758158 43.8509993,10.9634278 Z"></path>
                    <path d="M32.9894567,37.9270023 L27.1858167,46.0483634 L29.1673475,47.0186653 C34.72514,45.741866 39.5257223,42.524463 42.8479415,38.113851 L42.7692703,35.9224766 L32.9894567,37.9270023 Z"></path>
                    <path d="M4.87269747,35.9241157 L4.79730424,38.11549 C8.11460652,42.524463 12.9201057,45.741866 18.4762592,47.0203043 L20.459429,46.0500024 L14.655789,37.9286413 L4.87269747,35.9241157 Z"></path>
                    <path d="M5.88395019,10.2668428 L3.79096847,10.9634278 C1.39969177,14.6741768 3.55271368e-15,19.0831499 3.55271368e-15,23.8248447 C3.55271368e-15,24.8656245 0.0950610338,25.88018 0.222901734,26.8849014 L1.81107659,28.4042761 L7.40656572,20.1354029 L5.88395019,10.2668428 Z"></path>
                </g>
            </g>
        </g>
    </g>
</svg>